<svg xmlns="http://www.w3.org/2000/svg" viewBox="0 0 120 120" fill="none"> <defs> <linearGradient id="lobster-python-blue" x1="0%" y1="0%" x2="100%" y2="0%"> <stop offset="0%" stop-color="#3776AB"/> <stop offset="100%" stop-color="#2B5B8A"/> </linearGradient> <linearGradient id="lobster-python-yellow" x1="0%" y1="0%" x2="100%" y2="0%"> <stop offset="0%" stop-color="#FFD43B"/> <stop offset="100%" stop-color="#E5BE2D"/> </linearGradient> </defs> <path d="M60 10 C30 10 15 35 15 55 C15 75 30 95 45 100 L45 110 L55 110 L55 100 L60 102 L60 10 Z" fill="url(#lobster-python-blue)"/> <path d="M60 10 C90 10 105 35 105 55 C105 75 90 95 75 100 L75 110 L65 110 L65 100 L60 102 L60 10 Z" fill="url(#lobster-python-yellow)"/> <path d="M20 45 C5 40 0 50 5 60 C10 70 20 65 25 55 C28 48 25 45 20 45Z" fill="url(#lobster-python-blue)"/> <path d="M100 45 C115 40 120 50 115 60 C110 70 100 65 95 55 C92 48 95 45 100 45Z" fill="url(#lobster-python-yellow)"/> <path d="M45 15 Q35 5 30 8" stroke="#3776AB" stroke-width="3" stroke-linecap="round"/> <path d="M75 15 Q85 5 90 8" stroke="#FFD43B" stroke-width="3" stroke-linecap="round"/> <circle cx="45" cy="35" r="6" fill="#0d1117"/> <circle cx="75" cy="35" r="6" fill="#0d1117"/> <circle cx="43" cy="33" r="3" fill="#73d2ff"/> <circle cx="73" cy="33" r="3" fill="#73d2ff"/> </svg>